<svg width="56" height="56" viewBox="0 0 56 56" fill="none" xmlns="http://www.w3.org/2000/svg">
<path d="M40.1333 28.9333C33.95 28.9333 28.9333 33.95 28.9333 40.1334C28.9333 42.2334 29.5167 44.2167 30.5667 45.8967C32.5033 49.14 36.05 51.3334 40.1333 51.3334C44.2167 51.3334 47.7867 49.14 49.7 45.8967C50.7267 44.2167 51.3333 42.2334 51.3333 40.1334C51.3333 33.95 46.3167 28.9333 40.1333 28.9333ZM45.6867 38.6634L39.7133 44.17C39.3867 44.4734 38.9433 44.6367 38.5233 44.6367C38.08 44.6367 37.6367 44.4734 37.2867 44.1234L34.5333 41.37C33.8567 40.6933 33.8567 39.5734 34.5333 38.8967C35.21 38.22 36.33 38.22 37.0067 38.8967L38.57 40.46L43.3067 36.0734C44.0067 35.42 45.1267 35.4667 45.78 36.1667C46.4333 36.89 46.3867 38.01 45.6867 38.6634Z" fill="#FEFEFE"/>
<path d="M51.3333 20.37C51.3333 23.1467 50.89 25.7133 50.12 28.0933C49.98 28.5833 49.3967 28.7233 48.9767 28.42C46.4333 26.53 43.33 25.5267 40.1333 25.5267C32.0367 25.5267 25.4333 32.13 25.4333 40.2267C25.4333 42.7467 26.0867 45.22 27.3233 47.4133C27.6967 48.0667 27.2533 48.9067 26.5533 48.65C20.93 46.7367 9.56666 39.76 5.87999 28.0933C5.10999 25.7133 4.66666 23.1467 4.66666 20.37C4.66666 13.16 10.4767 7.32666 17.64 7.32666C21.8633 7.32666 25.6433 9.37999 28 12.53C30.3567 9.37999 34.1367 7.32666 38.36 7.32666C45.5233 7.32666 51.3333 13.16 51.3333 20.37Z" fill="#FEFEFE"/>
</svg>
